<svg xmlns="http://www.w3.org/2000/svg" xmlns:xlink="http://www.w3.org/1999/xlink" width="288" height="378" viewBox="0 0 288 378" fill="none" xmlns:c2pa="http://c2pa.org/manifest"><metadata><c2pa:manifest>AAAWgmp1bWIAAAAeanVtZGMycGEAEQAQgAAAqgA4m3EDYzJwYQAAABZcanVtYgAAAEdqdW1kYzJtYQARABCAAACqADibcQN1cm46YzJwYTozZjVjY2Q3Yi1iMDNlLTQ2YjEtOWRhYy05MTEyZjVmNzFjNmYAAAADl2p1bWIAAAApanVtZGMyYXMAEQAQgAAAqgA4m3EDYzJwYS5hc3NlcnRpb25zAAAAALxqdW1iAAAARGp1bWRjYm9yABEAEIAAAKoAOJtxE2MycGEuaW5ncmVkaWVudC52MwAAAAAYYzJzaPzIeqoCQBMkb0ajcoXjhAsAAABwY2JvcqNpZGM6Zm9ybWF0bWltYWdlL3N2Zyt4bWxqaW5zdGFuY2VJRHgseG1wOmlpZDoxOTA5MzE5Ny02NmJlLTQ0MGMtOGI3MS05ZTllZmMwNDM1NzlscmVsYXRpb25zaGlwaHBhcmVudE9mAAAB4mp1bWIAAABBanVtZGNib3IAEQAQgAAAqgA4m3ETYzJwYS5hY3Rpb25zLnYyAAAAABhjMnNoY/r4jyvZ/ALFDKBFIUixDAAAAZljYm9yomdhY3Rpb25zgqJmYWN0aW9ua2MycGEub3BlbmVkanBhcmFtZXRlcnOha2luZ3JlZGllbnRzgaJjdXJseC1zZWxmI2p1bWJmPWMycGEuYXNzZXJ0aW9ucy9jMnBhLmluZ3JlZGllbnQudjNkaGFzaFggocUJW1rMqpuCCIZmwgfkbNQIotAYXxlyvf+757VyUfSkZmFjdGlvbngdY29tLmFudGhyb3BpYy5jbGF1ZGUucHJvdmlkZWRqcGFyYW1ldGVyc6F4H2NvbS5hbnRocm9waWMub3JpZ2luLWNvbmZpZGVuY2VndW5rbm93bmtkZXNjcmlwdGlvbnhmQ2xhdWRlIHByb3ZpZGVkIHRoaXMgZmlsZSBhdCB0aGUgcmVxdWVzdCBvZiBhIHVzZXIgYW5kIG1heSBoYXZlIGNyZWF0ZWQgb3IgbW9kaWZpZWQgdGhlIGZpbGUgY29udGVudHMubXNvZnR3YXJlQWdlbnShZG5hbWVmQ2xhdWRlcmFsbEFjdGlvbnNJbmNsdWRlZPUAAADIanVtYgAAAEBqdW1kY2JvcgARABCAAACqADibcRNjMnBhLmhhc2guZGF0YQAAAAAYYzJzaDsePZpEA0E4roC0V37pcJsAAACAY2JvcqVjYWxnZnNoYTI1NmNwYWRNAAAAAAAAAAAAAAAAAGRoYXNoWCDg7dN+4MhYsYzxc+mehVMFd5Lqf8+3ZVj2PLhjhC6jT2RuYW1lbmp1bWJmIG1hbmlmZXN0amV4Y2x1c2lvbnOBomVzdGFydBjNZmxlbmd0aBkeBAAAAj5qdW1iAAAAJ2p1bWRjMmNsABEAEIAAAKoAOJtxA2MycGEuY2xhaW0udjIAAAACD2Nib3KlY2FsZ2ZzaGEyNTZpc2lnbmF0dXJleE1zZWxmI2p1bWJmPS9jMnBhL3VybjpjMnBhOjNmNWNjZDdiLWIwM2UtNDZiMS05ZGFjLTkxMTJmNWY3MWM2Zi9jMnBhLnNpZ25hdHVyZWppbnN0YW5jZUlEeCx4bXA6aWlkOmY0ZTFhZDY0LTQwMzktNDA0MC1hZWVjLTY0ZTk5N2MwY2VkMnJjcmVhdGVkX2Fzc2VydGlvbnODomN1cmx4LXNlbGYjanVtYmY9YzJwYS5hc3NlcnRpb25zL2MycGEuaW5ncmVkaWVudC52M2RoYXNoWCChxQlbWsyqm4IIhmbCB+Rs1Aii0BhfGXK9/7vntXJR9KJjdXJseCpzZWxmI2p1bWJmPWMycGEuYXNzZXJ0aW9ucy9jMnBhLmFjdGlvbnMudjJkaGFzaFggqY2qpEnPO+mRTSW65OSgG8alPRPXRSckLQT8DLmwQSOiY3VybHgpc2VsZiNqdW1iZj1jMnBhLmFzc2VydGlvbnMvYzJwYS5oYXNoLmRhdGFkaGFzaFgg4TYGKAdb7jw1N0KKte5WMQwAVehaNb7vVUTb12ByMLR0Y2xhaW1fZ2VuZXJhdG9yX2luZm+jZG5hbWVvQW50aHJvcGljIEZpbGVzZ3ZlcnNpb25lMS4wLjBrc3BlY1ZlcnNpb25lMi40LjAAABA4anVtYgAAAChqdW1kYzJjcwARABCAAACqADibcQNjMnBhLnNpZ25hdHVyZQAAABAIY2JvctKEWQISogEmGCFZAgowggIGMIIBjaADAgECAhRA5aAK7sI50L64g/oGQgU9Z1UTADAKBggqhkjOPQQDAzBJMRcwFQYDVQQKEw5BbnRocm9waWMsIFBCQzEuMCwGA1UEAxMlQW50aHJvcGljIENvbnRlbnQgQ3JlZGVudGlhbHMgUm9vdCBDQTAeFw0yNjA4MDcxODQzNTZaFw0yODA4MDYxOTQzNTZaMEQxFzAVBgNVBAoTDkFudGhyb3BpYywgUEJDMSkwJwYDVQQDEyBBbnRocm9waWMgQ2xhdWRlIENvbnRlbnQgU2lnbmluZzBZMBMGByqGSM49AgEGCCqGSM49AwEHA0IABJh6CmvLUBgFFNU0vUKlOVtE6djd17L5SuwX0LemFisBM3dkd/3cyjxFA3Qo5S46fX0/ihY0VZ7mfb9KF703t5OjWDBWMA4GA1UdDwEB/wQEAwIHgDAVBgNVHSUEDjAMBgorBgEEAYPoXgIBMAwGA1UdEwEB/wQCMAAwHwYDVR0jBBgwFoAUzlHiBIFOZFsj+OPEz5o+nMHXXMIwCgYIKoZIzj0EAwMDZwAwZAIwMXMdFJ4BetLLVY7ORuE9noqbbAZOZn/aArXyTwFAZfKrPzxF2vPoJNf1+UCdg1XGAjBwX1zd9WGqYkqmL5SFqw1QySjr1zJfpJM9+1rdDwSPLMOPOjKuiXjoU/pUUeG9RwmhY3BhZFkNngAAAAAAAAAAAAAAAAAAAAAAAAAAAAAAAAAAAAAAAAAAAAAAAAAAAAAAAAAAAAAAAAAAAAAAAAAAAAAAAAAAAAAAAAAAAAAAAAAAAAAAAAAAAAAAAAAAAAAAAAAAAAAAAAAAAAAAAAAAAAAAAAAAAAAAAAAAAAAAAAAAAAAAAAAAAAAAAAAAAAAAAAAAAAAAAAAAAAAAAAAAAAAAAAAAAAAAAAAAAAAAAAAAAAAAAAAAAAAAAAAAAAAAAAAAAAAAAAAAAAAAAAAAAAAAAAAAAAAAAAAAAAAAAAAAAAAAAAAAAAAAAAAAAAAAAAAAAAAAAAAAAAAAAAAAAAAAAAAAAAAAAAAAAAAAAAAAAAAAAAAAAAAAAAAAAAAAAAAAAAAAAAAAAAAAAAAAAAAAAAAAAAAAAAAAAAAAAAAAAAAAAAAAAAAAAAAAAAAAAAAAAAAAAAAAAAAAAAAAAAAAAAAAAAAAAAAAAAAAAAAAAAAAAAAAAAAAAAAAAAAAAAAAAAAAAAAAAAAAAAAAAAAAAAAAAAAAAAAAAAAAAAAAAAAAAAAAAAAAAAAAAAAAAAAAAAAAAAAAAAAAAAAAAAAAAAAAAAAAAAAAAAAAAAAAAAAAAAAAAAAAAAAAAAAAAAAAAAAAAAAAAAAAAAAAAAAAAAAAAAAAAAAAAAAAAAAAAAAAAAAAAAAAAAAAAAAAAAAAAAAAAAAAAAAAAAAAAAAAAAAAAAAAAAAAAAAAAAAAAAAAAAAAAAAAAAAAAAAAAAAAAAAAAAAAAAAAAAAAAAAAAAAAAAAAAAAAAAAAAAAAAAAAAAAAAAAAAAAAAAAAAAAAAAAAAAAAAAAAAAAAAAAAAAAAAAAAAAAAAAAAAAAAAAAAAAAAAAAAAAAAAAAAAAAAAAAAAAAAAAAAAAAAAAAAAAAAAAAAAAAAAAAAAAAAAAAAAAAAAAAAAAAAAAAAAAAAAAAAAAAAAAAAAAAAAAAAAAAAAAAAAAAAAAAAAAAAAAAAAAAAAAAAAAAAAAAAAAAAAAAAAAAAAAAAAAAAAAAAAAAAAAAAAAAAAAAAAAAAAAAAAAAAAAAAAAAAAAAAAAAAAAAAAAAAAAAAAAAAAAAAAAAAAAAAAAAAAAAAAAAAAAAAAAAAAAAAAAAAAAAAAAAAAAAAAAAAAAAAAAAAAAAAAAAAAAAAAAAAAAAAAAAAAAAAAAAAAAAAAAAAAAAAAAAAAAAAAAAAAAAAAAAAAAAAAAAAAAAAAAAAAAAAAAAAAAAAAAAAAAAAAAAAAAAAAAAAAAAAAAAAAAAAAAAAAAAAAAAAAAAAAAAAAAAAAAAAAAAAAAAAAAAAAAAAAAAAAAAAAAAAAAAAAAAAAAAAAAAAAAAAAAAAAAAAAAAAAAAAAAAAAAAAAAAAAAAAAAAAAAAAAAAAAAAAAAAAAAAAAAAAAAAAAAAAAAAAAAAAAAAAAAAAAAAAAAAAAAAAAAAAAAAAAAAAAAAAAAAAAAAAAAAAAAAAAAAAAAAAAAAAAAAAAAAAAAAAAAAAAAAAAAAAAAAAAAAAAAAAAAAAAAAAAAAAAAAAAAAAAAAAAAAAAAAAAAAAAAAAAAAAAAAAAAAAAAAAAAAAAAAAAAAAAAAAAAAAAAAAAAAAAAAAAAAAAAAAAAAAAAAAAAAAAAAAAAAAAAAAAAAAAAAAAAAAAAAAAAAAAAAAAAAAAAAAAAAAAAAAAAAAAAAAAAAAAAAAAAAAAAAAAAAAAAAAAAAAAAAAAAAAAAAAAAAAAAAAAAAAAAAAAAAAAAAAAAAAAAAAAAAAAAAAAAAAAAAAAAAAAAAAAAAAAAAAAAAAAAAAAAAAAAAAAAAAAAAAAAAAAAAAAAAAAAAAAAAAAAAAAAAAAAAAAAAAAAAAAAAAAAAAAAAAAAAAAAAAAAAAAAAAAAAAAAAAAAAAAAAAAAAAAAAAAAAAAAAAAAAAAAAAAAAAAAAAAAAAAAAAAAAAAAAAAAAAAAAAAAAAAAAAAAAAAAAAAAAAAAAAAAAAAAAAAAAAAAAAAAAAAAAAAAAAAAAAAAAAAAAAAAAAAAAAAAAAAAAAAAAAAAAAAAAAAAAAAAAAAAAAAAAAAAAAAAAAAAAAAAAAAAAAAAAAAAAAAAAAAAAAAAAAAAAAAAAAAAAAAAAAAAAAAAAAAAAAAAAAAAAAAAAAAAAAAAAAAAAAAAAAAAAAAAAAAAAAAAAAAAAAAAAAAAAAAAAAAAAAAAAAAAAAAAAAAAAAAAAAAAAAAAAAAAAAAAAAAAAAAAAAAAAAAAAAAAAAAAAAAAAAAAAAAAAAAAAAAAAAAAAAAAAAAAAAAAAAAAAAAAAAAAAAAAAAAAAAAAAAAAAAAAAAAAAAAAAAAAAAAAAAAAAAAAAAAAAAAAAAAAAAAAAAAAAAAAAAAAAAAAAAAAAAAAAAAAAAAAAAAAAAAAAAAAAAAAAAAAAAAAAAAAAAAAAAAAAAAAAAAAAAAAAAAAAAAAAAAAAAAAAAAAAAAAAAAAAAAAAAAAAAAAAAAAAAAAAAAAAAAAAAAAAAAAAAAAAAAAAAAAAAAAAAAAAAAAAAAAAAAAAAAAAAAAAAAAAAAAAAAAAAAAAAAAAAAAAAAAAAAAAAAAAAAAAAAAAAAAAAAAAAAAAAAAAAAAAAAAAAAAAAAAAAAAAAAAAAAAAAAAAAAAAAAAAAAAAAAAAAAAAAAAAAAAAAAAAAAAAAAAAAAAAAAAAAAAAAAAAAAAAAAAAAAAAAAAAAAAAAAAAAAAAAAAAAAAAAAAAAAAAAAAAAAAAAAAAAAAAAAAAAAAAAAAAAAAAAAAAAAAAAAAAAAAAAAAAAAAAAAAAAAAAAAAAAAAAAAAAAAAAAAAAAAAAAAAAAAAAAAAAAAAAAAAAAAAAAAAAAAAAAAAAAAAAAAAAAAAAAAAAAAAAAAAAAAAAAAAAAAAAAAAAAAAAAAAAAAAAAAAAAAAAAAAAAAAAAAAAAAAAAAAAAAAAAAAAAAAAAAAAAAAAAAAAAAAAAAAAAAAAAAAAAAAAAAAAAAAAAAAAAAAAAAAAAAAAAAAAAAAAAAAAAAAAAAAAAAAAAAAAAAAAAAAAAAAAAAAAAAAAAAAAAAAAAAAAAAAAAAAAAAAAAAAAAAAAAAAAAAAAAAAAAAAAAAAAAAAAAAAAAAAAAAAAAAAAAAAAAAAAAAAAAAAAAAAAAAAAAAAAAAAAAAAAAAAAAAAAAAAAAAAAAAAAAAAAAAAAAAAAAAAAAAAAAAAAAAAAAAAAAAAAAAAAAAAAAAAAAAAAAAAAAAAAAAAAAAAAAAAAAAAAAAAAAAAAAAAAAAAAAAAAAAAAAAAAAAAAAAAAAAAAAAAAAAAAAAAAAAAAAAAAAAAAAAAAAAAAAAAAAAAAAAAAAAAAAAAAAAAAAAAAAAAAAAAAAAAAAAAAAAAAAAAAAAAAAAAAAAAAAAAAAAAAAAAAAAAAAAAAAAAAAAAAAAAAAAAAAAAAAAAAAAAAAAAAAAAAAAAAAAAAAAAAAAAAAAAAAAAAAAAAAAAAAAAAAAAAAAAAAAAAAAAAAAAAAAAAAAAAAAAAAAAAAAAAAAAAAAAAAAAAAAAAAAAAAAAAAAAAAAAAAAAAAAAAAAAAAAAAAAAAAAAAAAAAAAAAAAAAAAAAAAAAAAAAAAAAAAAAAAAAAAAAAAAAAAAAAAAAAAAAAAAAAAAAAAAAAAAAAAAAAAAAAAAAAAAAAAAAAAAAAAAAAAAAAAAAAAAAAAAAAAAAAAAAAAAAAAAAAAAAAAAAAAAAAAAAAAAAAAAAAAAAAAAAAAAAAAAAAAAAAAAAAAAAAAAAAAAAAAAAAAAAAAAAAAAAAAAAAAAAAAAAAAAAAAAAAAAAAAAAAAAAAAAAAAAAAAAAAAAAAAAAAAAAAAAAAAAAAAAAAAAAAAAAAAAAAAAAAAAAAAAAAAAAAAAAAAAAAAAAAAAAAAAAAAAAAAAAAAAAAAAAAAAAAAAAAAAAAAAAAAAAAAAAAAAAAAAAAAAAAAAAAAAAAAAAAAAAAAAAAAAAAAAAAAAAAAAAAAAAAAAAAAAAAAAAAAAAAAAAAAAAAAAAAAAAAAAAAAAAAAAAAAAAAAAAAAAAAAAAAAAAAAAAAAAAAAAAAAAAAAAAAAAAAAAAAAAAAAAAAAAAAAAAAAAAAAAAAAAAAAAAAAAAAAAAAAAAAAAAAAAAAAAAAAAAAAAAAAAAAAAAAAAAAAAAAAAAAAAAAAAAAAAAAAAAAAAAAAAAAAAAAAAAAAAAAAAAAAAAAAAAAAAAAAAAAAAAAAAAAAAAAAAAAAAAAAAAAAAAAAAAAAAAAAAAAAAAAAAAAAAAAAAAAAAAAAAAAAAAAAAAAAAAAAAAAAAAAAAAAAAAAAAAAAAAAAAAAAAAAAAAAAAAAAAAAAAAAAAAAAAAAAAAAAAAAAAAAAAAAAAAAAAAAAAAAAAAAAAAAAAAAAAAAAAAAAAAAAAAAAAAAAAAAAAAAAAAAAAAAAAAAAAAAAAAAAAAAAAAAAAAAAAAAAAAAAAAAAAAAAAAAAAAAAAAAAAAAAAAAAAAAAAAAAAAAAAAAAAAAAAAAAAAAAAAAAAAAAAAAAAAAAAAAAAAAAAAAAAAAAAAAAAAAAAAAAAAAAAAAAAAAAAAAAAAAAAAAAAAAAAAAAAAAAAAAAAAAAAAAAAAAAPZYQMuul2p6UZJ7/vkGz7b+dPfyCj69/FrH7aUICNagnEv5IhAZuAJUg4AaI2cPRXF2S1/M2vAjVl1vquXlHs6qTf4=</c2pa:manifest></metadata><defs><filter id="g136" x="-20%" y="-20%" width="140%" height="140%" color-interpolation-filters="sRGB"><feDropShadow dx="0" dy="1" stdDeviation="2" flood-color="#1b2440" flood-opacity="0.12"/></filter><linearGradient id="g137" x1="0.5" y1="0" x2="0.5" y2="1"><stop offset="0" stop-color="#ffffff" stop-opacity="1"/><stop offset="0.5" stop-color="#f5f7fb" stop-opacity="1"/><stop offset="1" stop-color="#eceff5" stop-opacity="1"/></linearGradient><linearGradient id="g138" x1="0.5" y1="0" x2="0.5" y2="0.1"><stop offset="0" stop-color="#ffffff" stop-opacity="0.6"/><stop offset="1" stop-color="#ffffff" stop-opacity="0"/></linearGradient><clipPath id="g139"><path d="M43.89,3L168.01,3C177.03,3,182.68,6.39,189.45,13.16L261.66,85.37C268.43,92.15,271.82,100.04,271.82,110.2L271.82,339.25C271.82,362.27,253.09,381,230.07,381L43.89,381C20.87,381,2.14,362.27,2.14,339.25L2.14,44.75C2.14,21.73,20.87,3,43.89,3Z"/></clipPath><linearGradient id="g140" x1="0.5" y1="0" x2="0.5" y2="1"><stop offset="0" stop-color="#ffffff" stop-opacity="0.95"/><stop offset="1" stop-color="#c9d0de" stop-opacity="0.55"/></linearGradient><filter id="g141" x="-20%" y="-20%" width="140%" height="140%" color-interpolation-filters="sRGB"><feDropShadow dx="-2" dy="3" stdDeviation="7" flood-color="#2a3456" flood-opacity="0.11"/></filter><linearGradient id="g142" x1="0.2" y1="0" x2="0.8" y2="1"><stop offset="0" stop-color="#f4f6fa" stop-opacity="1"/><stop offset="0.55" stop-color="#e9edf4" stop-opacity="1"/><stop offset="1" stop-color="#dfe4ee" stop-opacity="1"/></linearGradient><clipPath id="g143"><path d="M172.53,12.03C172.53,5.25,178.17,4.13,182.67,8.64L265.05,91.01C269.57,95.52,268.43,102.29,261.66,102.29L206.37,102.29C187.65,102.29,172.53,87.17,172.53,68.44Z"/></clipPath><linearGradient id="g144" x1="0.5" y1="0" x2="0.5" y2="1"><stop offset="0" stop-color="#ffffff" stop-opacity="0.7"/><stop offset="1" stop-color="#d5dbe7" stop-opacity="0.25"/></linearGradient><linearGradient id="g145" x1="0.5" y1="0" x2="0.5" y2="1"><stop offset="0" stop-color="#F05A44" stop-opacity="1"/><stop offset="0.55" stop-color="#CF2424" stop-opacity="1"/><stop offset="1" stop-color="#E0402F" stop-opacity="1"/></linearGradient><linearGradient id="g146" x1="0.5" y1="0" x2="0.5" y2="1"><stop offset="0" stop-color="#FF9C8C" stop-opacity="0.95"/><stop offset="1" stop-color="#9E1616" stop-opacity="0.6"/></linearGradient><filter id="g147" x="-30%" y="-30%" width="160%" height="160%" color-interpolation-filters="sRGB"><feDropShadow dx="0" dy="3" stdDeviation="5" flood-color="#000000" flood-opacity="0.28"/></filter><clipPath id="g148"><path d="M171.2,234.71H267.2A20,20 0 0 1 287.2,254.71V293.71000000000004A20,20 0 0 1 267.2,313.71000000000004H171.2A20,20 0 0 1 151.2,293.71000000000004V254.71A20,20 0 0 1 171.2,234.71Z"/></clipPath><linearGradient id="g149" x1="0.5" y1="0" x2="0.5" y2="1"><stop offset="0" stop-color="#ffffff" stop-opacity="0.28"/><stop offset="1" stop-color="#ffffff" stop-opacity="0"/></linearGradient><filter id="g150" x="-30%" y="-30%" width="160%" height="160%" color-interpolation-filters="sRGB"><feDropShadow dx="0" dy="2" stdDeviation="1.5" flood-color="#000000" flood-opacity="0.28"/></filter><filter id="grainW" x="0" y="0" width="100%" height="100%" color-interpolation-filters="sRGB"><feTurbulence type="fractalNoise" baseFrequency="0.85" numOctaves="3" seed="7" stitchTiles="stitch" result="fine"/><feColorMatrix in="fine" type="matrix" values="0.33 0.33 0.33 0 0 0.33 0.33 0.33 0 0 0.33 0.33 0.33 0 0 0 0 0 0 1" result="fineG"/><feTurbulence type="fractalNoise" baseFrequency="0.018 0.011" numOctaves="4" seed="3" stitchTiles="stitch" result="fib"/><feColorMatrix in="fib" type="matrix" values="0.33 0.33 0.33 0 0 0.33 0.33 0.33 0 0 0.33 0.33 0.33 0 0 0 0 0 0 1" result="fibG"/><feComposite in="fineG" in2="fibG" operator="arithmetic" k1="0" k2="0.45" k3="0.55" k4="0" result="mix"/><feComponentTransfer in="mix" result="g"><feFuncR type="linear" slope="1.25" intercept="0.02"/></feComponentTransfer><feColorMatrix in="g" type="matrix" values="0 0 0 0 1 0 0 0 0 1 0 0 0 0 1 0.2 0 0 0 -0.120"/></filter><filter id="grainB" x="0" y="0" width="100%" height="100%" color-interpolation-filters="sRGB"><feTurbulence type="fractalNoise" baseFrequency="0.85" numOctaves="3" seed="7" stitchTiles="stitch" result="fine"/><feColorMatrix in="fine" type="matrix" values="0.33 0.33 0.33 0 0 0.33 0.33 0.33 0 0 0.33 0.33 0.33 0 0 0 0 0 0 1" result="fineG"/><feTurbulence type="fractalNoise" baseFrequency="0.018 0.011" numOctaves="4" seed="3" stitchTiles="stitch" result="fib"/><feColorMatrix in="fib" type="matrix" values="0.33 0.33 0.33 0 0 0.33 0.33 0.33 0 0 0.33 0.33 0.33 0 0 0 0 0 0 1" result="fibG"/><feComposite in="fineG" in2="fibG" operator="arithmetic" k1="0" k2="0.45" k3="0.55" k4="0" result="mix"/><feComponentTransfer in="mix" result="g"><feFuncR type="linear" slope="1.25" intercept="0.02"/></feComponentTransfer><feColorMatrix in="g" type="matrix" values="0 0 0 0 0 0 0 0 0 0 0 0 0 0 0 -0.2 0 0 0 0.120"/></filter><g id="grain"><rect width="420" height="420" filter="url(#grainW)"/><rect width="420" height="420" filter="url(#grainB)"/></g></defs><g transform="translate(-2.14,-3)"><g filter="url(#g136)"><path d="M43.89,3L168.01,3C177.03,3,182.68,6.39,189.45,13.16L261.66,85.37C268.43,92.15,271.82,100.04,271.82,110.2L271.82,339.25C271.82,362.27,253.09,381,230.07,381L43.89,381C20.87,381,2.14,362.27,2.14,339.25L2.14,44.75C2.14,21.73,20.87,3,43.89,3Z" fill="url(#g137)"/><path d="M43.89,3L168.01,3C177.03,3,182.68,6.39,189.45,13.16L261.66,85.37C268.43,92.15,271.82,100.04,271.82,110.2L271.82,339.25C271.82,362.27,253.09,381,230.07,381L43.89,381C20.87,381,2.14,362.27,2.14,339.25L2.14,44.75C2.14,21.73,20.87,3,43.89,3Z" fill="url(#g138)"/></g><g clip-path="url(#g139)"><use href="#grain" xlink:href="#grain"/></g><path d="M43.89,3L168.01,3C177.03,3,182.68,6.39,189.45,13.16L261.66,85.37C268.43,92.15,271.82,100.04,271.82,110.2L271.82,339.25C271.82,362.27,253.09,381,230.07,381L43.89,381C20.87,381,2.14,362.27,2.14,339.25L2.14,44.75C2.14,21.73,20.87,3,43.89,3Z" clip-path="url(#g139)" fill="none" stroke="url(#g140)" stroke-width="3"/><g filter="url(#g141)"><path d="M172.53,12.03C172.53,5.25,178.17,4.13,182.67,8.64L265.05,91.01C269.57,95.52,268.43,102.29,261.66,102.29L206.37,102.29C187.65,102.29,172.53,87.17,172.53,68.44Z" fill="url(#g142)"/></g><g clip-path="url(#g143)"><use href="#grain" xlink:href="#grain"/></g><path d="M172.53,12.03C172.53,5.25,178.17,4.13,182.67,8.64L265.05,91.01C269.57,95.52,268.43,102.29,261.66,102.29L206.37,102.29C187.65,102.29,172.53,87.17,172.53,68.44Z" clip-path="url(#g143)" fill="none" stroke="url(#g144)" stroke-width="3"/></g><path d="M171.2,234.71H267.2A20,20 0 0 1 287.2,254.71V293.71000000000004A20,20 0 0 1 267.2,313.71000000000004H171.2A20,20 0 0 1 151.2,293.71000000000004V254.71A20,20 0 0 1 171.2,234.71Z" fill="url(#g145)" filter="url(#g147)"/><path d="M171.2,234.71H267.2A20,20 0 0 1 287.2,254.71V293.71000000000004A20,20 0 0 1 267.2,313.71000000000004H171.2A20,20 0 0 1 151.2,293.71000000000004V254.71A20,20 0 0 1 171.2,234.71Z" clip-path="url(#g148)" fill="none" stroke="url(#g146)" stroke-width="4"/><path d="M172.2,237.71H266.2A17,17 0 0 1 283.2,254.71V265.26A8,8 0 0 1 275.2,273.26H163.2A8,8 0 0 1 155.2,265.26V254.71A17,17 0 0 1 172.2,237.71Z" fill="url(#g149)"/><path d="M175.709765625 289.94339843750004V256.47660156250004H189.4109375Q193.184375 256.47660156250004 195.924609375 257.93656250000004Q198.66484375 259.39652343750004 200.13603515625 262.00199218750004Q201.6072265625 264.60746093750004 201.6072265625 268.04398437500004Q201.6072265625 271.50296875000004 200.10234375 274.06351562500004Q198.5974609375 276.62406250000004 195.8123046875 278.06156250000004Q193.0271484375 279.49906250000004 189.186328125 279.49906250000004H180.69609375V273.23246093750004H187.748828125Q189.6130859375 273.23246093750004 190.8708984375 272.58109375000004Q192.1287109375 271.92972656250004 192.7576171875 270.76175781250004Q193.3865234375 269.59378906250004 193.3865234375 268.04398437500004Q193.3865234375 266.47171875000004 192.7576171875 265.31498046875004Q192.1287109375 264.15824218750004 190.85966796875 263.52933593750004Q189.590625 262.90042968750004 187.7263671875 262.90042968750004H183.6384765625V289.94339843750004ZM218.5037109375 289.94339843750004H209.6091796875V283.16019531250004H218.166796875Q221.041796875 283.16019531250004 223.02958984375 282.19437500000004Q225.0173828125 281.22855468750004 226.028125 279.02738281250004Q227.0388671875 276.82621093750004 227.0388671875 273.21000000000004Q227.0388671875 269.59378906250004 226.0056640625 267.40384765625004Q224.9724609375 265.21390625000004 222.98466796875 264.23685546875004Q220.996875 263.25980468750004 218.0544921875 263.25980468750004H209.451953125V256.47660156250004H218.5037109375Q223.60234375 256.47660156250004 227.2859375 258.48685546875004Q230.96953125 260.49710937500004 232.9685546875 264.24808593750004Q234.967578125 267.99906250000004 234.967578125 273.21000000000004Q234.967578125 278.42093750000004 232.97978515625 282.18314453125004Q230.9919921875 285.94535156250004 227.29716796875 287.94437500000004Q223.60234375 289.94339843750004 218.5037109375 289.94339843750004ZM214.123828125 256.47660156250004V289.94339843750004H206.1951171875V256.47660156250004ZM239.9373046875 289.94339843750004V256.47660156250004H262.690234375V262.94535156250004H247.866015625V271.43558593750004H261.2302734375V277.76957031250004H247.866015625V289.94339843750004Z" fill="#ffffff" filter="url(#g150)"/></svg>