<svg xmlns="http://www.w3.org/2000/svg" xmlns:xlink="http://www.w3.org/1999/xlink" width="306" height="378" viewBox="0 0 306 378" fill="none" xmlns:c2pa="http://c2pa.org/manifest"><metadata><c2pa:manifest>AAAWgmp1bWIAAAAeanVtZGMycGEAEQAQgAAAqgA4m3EDYzJwYQAAABZcanVtYgAAAEdqdW1kYzJtYQARABCAAACqADibcQN1cm46YzJwYTowYzJiNDFlNS0zOWU3LTRhMjMtYjlmMi0yZjAwNDhjNjg3YmYAAAADl2p1bWIAAAApanVtZGMyYXMAEQAQgAAAqgA4m3EDYzJwYS5hc3NlcnRpb25zAAAAALxqdW1iAAAARGp1bWRjYm9yABEAEIAAAKoAOJtxE2MycGEuaW5ncmVkaWVudC52MwAAAAAYYzJzaEzTN49mMqnFllrzL2rm1EkAAABwY2JvcqNpZGM6Zm9ybWF0bWltYWdlL3N2Zyt4bWxqaW5zdGFuY2VJRHgseG1wOmlpZDpjOGVjNjkzMi04YzhmLTRhMjgtODNkMi0xNGYyMmNiZjI1ZTNscmVsYXRpb25zaGlwaHBhcmVudE9mAAAB4mp1bWIAAABBanVtZGNib3IAEQAQgAAAqgA4m3ETYzJwYS5hY3Rpb25zLnYyAAAAABhjMnNoeghalk/b7gz1hZ2I6yFfJgAAAZljYm9yomdhY3Rpb25zgqJmYWN0aW9ua2MycGEub3BlbmVkanBhcmFtZXRlcnOha2luZ3JlZGllbnRzgaJjdXJseC1zZWxmI2p1bWJmPWMycGEuYXNzZXJ0aW9ucy9jMnBhLmluZ3JlZGllbnQudjNkaGFzaFgg0xcHCvdHkRT48YxVQriu6p0HJTIwmvIQaS51YXb5AhukZmFjdGlvbngdY29tLmFudGhyb3BpYy5jbGF1ZGUucHJvdmlkZWRqcGFyYW1ldGVyc6F4H2NvbS5hbnRocm9waWMub3JpZ2luLWNvbmZpZGVuY2VndW5rbm93bmtkZXNjcmlwdGlvbnhmQ2xhdWRlIHByb3ZpZGVkIHRoaXMgZmlsZSBhdCB0aGUgcmVxdWVzdCBvZiBhIHVzZXIgYW5kIG1heSBoYXZlIGNyZWF0ZWQgb3IgbW9kaWZpZWQgdGhlIGZpbGUgY29udGVudHMubXNvZnR3YXJlQWdlbnShZG5hbWVmQ2xhdWRlcmFsbEFjdGlvbnNJbmNsdWRlZPUAAADIanVtYgAAAEBqdW1kY2JvcgARABCAAACqADibcRNjMnBhLmhhc2guZGF0YQAAAAAYYzJzaFa+rNFf1bJHHJ8VDfF0WJwAAACAY2JvcqVjYWxnZnNoYTI1NmNwYWRNAAAAAAAAAAAAAAAAAGRoYXNoWCAbL/KDa9/nXg7iAy/wyUYupFtF62ij5zUYT8bfNw+9HWRuYW1lbmp1bWJmIG1hbmlmZXN0amV4Y2x1c2lvbnOBomVzdGFydBjNZmxlbmd0aBkeBAAAAj5qdW1iAAAAJ2p1bWRjMmNsABEAEIAAAKoAOJtxA2MycGEuY2xhaW0udjIAAAACD2Nib3KlY2FsZ2ZzaGEyNTZpc2lnbmF0dXJleE1zZWxmI2p1bWJmPS9jMnBhL3VybjpjMnBhOjBjMmI0MWU1LTM5ZTctNGEyMy1iOWYyLTJmMDA0OGM2ODdiZi9jMnBhLnNpZ25hdHVyZWppbnN0YW5jZUlEeCx4bXA6aWlkOjI4ZjhjYWUxLThkZjQtNDJhOC1hNzE0LWZjNWYyYjY2MDg0NHJjcmVhdGVkX2Fzc2VydGlvbnODomN1cmx4LXNlbGYjanVtYmY9YzJwYS5hc3NlcnRpb25zL2MycGEuaW5ncmVkaWVudC52M2RoYXNoWCDTFwcK90eRFPjxjFVCuK7qnQclMjCa8hBpLnVhdvkCG6JjdXJseCpzZWxmI2p1bWJmPWMycGEuYXNzZXJ0aW9ucy9jMnBhLmFjdGlvbnMudjJkaGFzaFggD9GZF5EBW+ThGYhIM6eE9IvcxPyuVCtaIrSowWYYP7yiY3VybHgpc2VsZiNqdW1iZj1jMnBhLmFzc2VydGlvbnMvYzJwYS5oYXNoLmRhdGFkaGFzaFggLCwZgCbEoLq1V/5QL6nhigcYp+3tEAk4qXq11I12BId0Y2xhaW1fZ2VuZXJhdG9yX2luZm+jZG5hbWVvQW50aHJvcGljIEZpbGVzZ3ZlcnNpb25lMS4wLjBrc3BlY1ZlcnNpb25lMi40LjAAABA4anVtYgAAAChqdW1kYzJjcwARABCAAACqADibcQNjMnBhLnNpZ25hdHVyZQAAABAIY2JvctKEWQISogEmGCFZAgowggIGMIIBjaADAgECAhRA5aAK7sI50L64g/oGQgU9Z1UTADAKBggqhkjOPQQDAzBJMRcwFQYDVQQKEw5BbnRocm9waWMsIFBCQzEuMCwGA1UEAxMlQW50aHJvcGljIENvbnRlbnQgQ3JlZGVudGlhbHMgUm9vdCBDQTAeFw0yNjA4MDcxODQzNTZaFw0yODA4MDYxOTQzNTZaMEQxFzAVBgNVBAoTDkFudGhyb3BpYywgUEJDMSkwJwYDVQQDEyBBbnRocm9waWMgQ2xhdWRlIENvbnRlbnQgU2lnbmluZzBZMBMGByqGSM49AgEGCCqGSM49AwEHA0IABJh6CmvLUBgFFNU0vUKlOVtE6djd17L5SuwX0LemFisBM3dkd/3cyjxFA3Qo5S46fX0/ihY0VZ7mfb9KF703t5OjWDBWMA4GA1UdDwEB/wQEAwIHgDAVBgNVHSUEDjAMBgorBgEEAYPoXgIBMAwGA1UdEwEB/wQCMAAwHwYDVR0jBBgwFoAUzlHiBIFOZFsj+OPEz5o+nMHXXMIwCgYIKoZIzj0EAwMDZwAwZAIwMXMdFJ4BetLLVY7ORuE9noqbbAZOZn/aArXyTwFAZfKrPzxF2vPoJNf1+UCdg1XGAjBwX1zd9WGqYkqmL5SFqw1QySjr1zJfpJM9+1rdDwSPLMOPOjKuiXjoU/pUUeG9RwmhY3BhZFkNngAAAAAAAAAAAAAAAAAAAAAAAAAAAAAAAAAAAAAAAAAAAAAAAAAAAAAAAAAAAAAAAAAAAAAAAAAAAAAAAAAAAAAAAAAAAAAAAAAAAAAAAAAAAAAAAAAAAAAAAAAAAAAAAAAAAAAAAAAAAAAAAAAAAAAAAAAAAAAAAAAAAAAAAAAAAAAAAAAAAAAAAAAAAAAAAAAAAAAAAAAAAAAAAAAAAAAAAAAAAAAAAAAAAAAAAAAAAAAAAAAAAAAAAAAAAAAAAAAAAAAAAAAAAAAAAAAAAAAAAAAAAAAAAAAAAAAAAAAAAAAAAAAAAAAAAAAAAAAAAAAAAAAAAAAAAAAAAAAAAAAAAAAAAAAAAAAAAAAAAAAAAAAAAAAAAAAAAAAAAAAAAAAAAAAAAAAAAAAAAAAAAAAAAAAAAAAAAAAAAAAAAAAAAAAAAAAAAAAAAAAAAAAAAAAAAAAAAAAAAAAAAAAAAAAAAAAAAAAAAAAAAAAAAAAAAAAAAAAAAAAAAAAAAAAAAAAAAAAAAAAAAAAAAAAAAAAAAAAAAAAAAAAAAAAAAAAAAAAAAAAAAAAAAAAAAAAAAAAAAAAAAAAAAAAAAAAAAAAAAAAAAAAAAAAAAAAAAAAAAAAAAAAAAAAAAAAAAAAAAAAAAAAAAAAAAAAAAAAAAAAAAAAAAAAAAAAAAAAAAAAAAAAAAAAAAAAAAAAAAAAAAAAAAAAAAAAAAAAAAAAAAAAAAAAAAAAAAAAAAAAAAAAAAAAAAAAAAAAAAAAAAAAAAAAAAAAAAAAAAAAAAAAAAAAAAAAAAAAAAAAAAAAAAAAAAAAAAAAAAAAAAAAAAAAAAAAAAAAAAAAAAAAAAAAAAAAAAAAAAAAAAAAAAAAAAAAAAAAAAAAAAAAAAAAAAAAAAAAAAAAAAAAAAAAAAAAAAAAAAAAAAAAAAAAAAAAAAAAAAAAAAAAAAAAAAAAAAAAAAAAAAAAAAAAAAAAAAAAAAAAAAAAAAAAAAAAAAAAAAAAAAAAAAAAAAAAAAAAAAAAAAAAAAAAAAAAAAAAAAAAAAAAAAAAAAAAAAAAAAAAAAAAAAAAAAAAAAAAAAAAAAAAAAAAAAAAAAAAAAAAAAAAAAAAAAAAAAAAAAAAAAAAAAAAAAAAAAAAAAAAAAAAAAAAAAAAAAAAAAAAAAAAAAAAAAAAAAAAAAAAAAAAAAAAAAAAAAAAAAAAAAAAAAAAAAAAAAAAAAAAAAAAAAAAAAAAAAAAAAAAAAAAAAAAAAAAAAAAAAAAAAAAAAAAAAAAAAAAAAAAAAAAAAAAAAAAAAAAAAAAAAAAAAAAAAAAAAAAAAAAAAAAAAAAAAAAAAAAAAAAAAAAAAAAAAAAAAAAAAAAAAAAAAAAAAAAAAAAAAAAAAAAAAAAAAAAAAAAAAAAAAAAAAAAAAAAAAAAAAAAAAAAAAAAAAAAAAAAAAAAAAAAAAAAAAAAAAAAAAAAAAAAAAAAAAAAAAAAAAAAAAAAAAAAAAAAAAAAAAAAAAAAAAAAAAAAAAAAAAAAAAAAAAAAAAAAAAAAAAAAAAAAAAAAAAAAAAAAAAAAAAAAAAAAAAAAAAAAAAAAAAAAAAAAAAAAAAAAAAAAAAAAAAAAAAAAAAAAAAAAAAAAAAAAAAAAAAAAAAAAAAAAAAAAAAAAAAAAAAAAAAAAAAAAAAAAAAAAAAAAAAAAAAAAAAAAAAAAAAAAAAAAAAAAAAAAAAAAAAAAAAAAAAAAAAAAAAAAAAAAAAAAAAAAAAAAAAAAAAAAAAAAAAAAAAAAAAAAAAAAAAAAAAAAAAAAAAAAAAAAAAAAAAAAAAAAAAAAAAAAAAAAAAAAAAAAAAAAAAAAAAAAAAAAAAAAAAAAAAAAAAAAAAAAAAAAAAAAAAAAAAAAAAAAAAAAAAAAAAAAAAAAAAAAAAAAAAAAAAAAAAAAAAAAAAAAAAAAAAAAAAAAAAAAAAAAAAAAAAAAAAAAAAAAAAAAAAAAAAAAAAAAAAAAAAAAAAAAAAAAAAAAAAAAAAAAAAAAAAAAAAAAAAAAAAAAAAAAAAAAAAAAAAAAAAAAAAAAAAAAAAAAAAAAAAAAAAAAAAAAAAAAAAAAAAAAAAAAAAAAAAAAAAAAAAAAAAAAAAAAAAAAAAAAAAAAAAAAAAAAAAAAAAAAAAAAAAAAAAAAAAAAAAAAAAAAAAAAAAAAAAAAAAAAAAAAAAAAAAAAAAAAAAAAAAAAAAAAAAAAAAAAAAAAAAAAAAAAAAAAAAAAAAAAAAAAAAAAAAAAAAAAAAAAAAAAAAAAAAAAAAAAAAAAAAAAAAAAAAAAAAAAAAAAAAAAAAAAAAAAAAAAAAAAAAAAAAAAAAAAAAAAAAAAAAAAAAAAAAAAAAAAAAAAAAAAAAAAAAAAAAAAAAAAAAAAAAAAAAAAAAAAAAAAAAAAAAAAAAAAAAAAAAAAAAAAAAAAAAAAAAAAAAAAAAAAAAAAAAAAAAAAAAAAAAAAAAAAAAAAAAAAAAAAAAAAAAAAAAAAAAAAAAAAAAAAAAAAAAAAAAAAAAAAAAAAAAAAAAAAAAAAAAAAAAAAAAAAAAAAAAAAAAAAAAAAAAAAAAAAAAAAAAAAAAAAAAAAAAAAAAAAAAAAAAAAAAAAAAAAAAAAAAAAAAAAAAAAAAAAAAAAAAAAAAAAAAAAAAAAAAAAAAAAAAAAAAAAAAAAAAAAAAAAAAAAAAAAAAAAAAAAAAAAAAAAAAAAAAAAAAAAAAAAAAAAAAAAAAAAAAAAAAAAAAAAAAAAAAAAAAAAAAAAAAAAAAAAAAAAAAAAAAAAAAAAAAAAAAAAAAAAAAAAAAAAAAAAAAAAAAAAAAAAAAAAAAAAAAAAAAAAAAAAAAAAAAAAAAAAAAAAAAAAAAAAAAAAAAAAAAAAAAAAAAAAAAAAAAAAAAAAAAAAAAAAAAAAAAAAAAAAAAAAAAAAAAAAAAAAAAAAAAAAAAAAAAAAAAAAAAAAAAAAAAAAAAAAAAAAAAAAAAAAAAAAAAAAAAAAAAAAAAAAAAAAAAAAAAAAAAAAAAAAAAAAAAAAAAAAAAAAAAAAAAAAAAAAAAAAAAAAAAAAAAAAAAAAAAAAAAAAAAAAAAAAAAAAAAAAAAAAAAAAAAAAAAAAAAAAAAAAAAAAAAAAAAAAAAAAAAAAAAAAAAAAAAAAAAAAAAAAAAAAAAAAAAAAAAAAAAAAAAAAAAAAAAAAAAAAAAAAAAAAAAAAAAAAAAAAAAAAAAAAAAAAAAAAAAAAAAAAAAAAAAAAAAAAAAAAAAAAAAAAAAAAAAAAAAAAAAAAAAAAAAAAAAAAAAAAAAAAAAAAAAAAAAAAAAAAAAAAAAAAAAAAAAAAAAAAAAAAAAAAAAAAAAAAAAAAAAAAAAAAAAAAAAAAAAAAAAAAAAAAAAAAAAAAAAAAAAAAAAAAAAAAAAAAAAAAAAAAAAAAAAAAAAAAAAAAAAAAAAAAAAAAAAAAAAAAAAAAAAAAAAAAAAAAAAAAAAAAAAAAAAAAAAAAAAAAAAAAAAAAAAAAAAAAAAAAAAAAAAAAAAAAAAAAAAAAAAAAAAAAAAAAAAAAAAAAAAAAAAAAAAAAAAAAAAAAAAAAAAAAAAAAAAAAAAAAAAAAAAAAAAAAAAAAAAAAAAAAAAAAAAAAAAAAAAAAAAAAAAAAAAAAAAAAAAAAAAAAAAAAAAAAAAAAAAAAAAAAAAAAAAAAAAAAAAAAAAAAAAAAAAAAAAAAAAAAAAAAAAAAAAAAAAAAAAAAAAAAAAAAAAAAAAAAAAAAAAAAAAAAAAAAAAAAAAAAAAAAAAAAAAAAAAAAAAAAAAAAAAAAAAAAAAAAAAAAAAAAAAAAAAAAAAAAAAAAAAAAAAAAAAAAAAAAAAAAAAAAAAAAAAAAAAAAAAAAAAAAAAAAAAAAAAAAAAAAAAAAAAAAAAAAAAAAAAAAAAAAAAAAAAAAAAAAAAAAAAAAAAAAAAAAAAAAAAAAAAAAAAAAAAAAAAAAAAAAAAAAAAAAAAAAAAAAAAAAAAAAAAAAAAAAAAAAAAAAAAAAAAAAAAAAAAAAAAAAAAAAAAAAAAAAAAAAAAAAAAAAAAAAAAAAAAAAAAAAAAAAAAAAAAAAAAAAAAAAAAAAAAAAAAAAAAAAAAAAAAAAAAAAAAAAAAAAAAAAAAAAAAAAAAAAAAAAAAAAAAAAAAAAAAAAAAAAAAAAAAAAAAAAAAAAAAAAAAAAAAAAAAAAAAAAAAAAAAAAAAAAAAAAAAAAAAAAAAAAAAAAAAAAAAAAAAAAAAAAAAAAAAAAAAAAAAAAAAAAAAAAAAAAAAAAAAAAAAAAAAAAAAAAAAAAAAAAAAAAAAAAAAAAAAAAAAAAAAAAAAAAAAAAAAAAAAAAAAAAAAAAAAAAAAAAAAAAAAAAAAAAAAAAAAAAAAAAAAAAAAAAAAAAAAAAAAAAAAAAAAAAAAAAAAAAAAAAAAAAAAAAAAAAAAAAAAAAAAAAAAAAAAAAAAAAAAAAAAAAAAAAAAAAAAAAAAAAAAAAAAAAAAAAAAAAAAAAAAAAAAAAAAAAAAAAAAAAAAAAAAAAAAAAAAAAAAAAAAAAAAAAAAAAAAAAAAAAAAAAAAAAAAAAAAAAAAAAAAAAAAAAAAAAAAAAAAAAAAAAAAAAAAAAAAAAAAAAAAAAAAAAAAPZYQIj19e0WSdgwEKiNeIMPN2T3nTTlUok7/IkvXegAFFqKyx1u/G9b5BV0A86QfaTPCRSKXeqsnPdGlnFMnIgc+HA=</c2pa:manifest></metadata><defs><filter id="g181" x="-20%" y="-20%" width="140%" height="140%" color-interpolation-filters="sRGB"><feDropShadow dx="0" dy="1" stdDeviation="2" flood-color="#1b2440" flood-opacity="0.12"/></filter><linearGradient id="g182" x1="0.5" y1="0" x2="0.5" y2="1"><stop offset="0" stop-color="#ffffff" stop-opacity="1"/><stop offset="0.5" stop-color="#f5f7fb" stop-opacity="1"/><stop offset="1" stop-color="#eceff5" stop-opacity="1"/></linearGradient><linearGradient id="g183" x1="0.5" y1="0" x2="0.5" y2="0.1"><stop offset="0" stop-color="#ffffff" stop-opacity="0.6"/><stop offset="1" stop-color="#ffffff" stop-opacity="0"/></linearGradient><clipPath id="g184"><path d="M43.89,3L168.01,3C177.03,3,182.68,6.39,189.45,13.16L261.66,85.37C268.43,92.15,271.82,100.04,271.82,110.2L271.82,339.25C271.82,362.27,253.09,381,230.07,381L43.89,381C20.87,381,2.14,362.27,2.14,339.25L2.14,44.75C2.14,21.73,20.87,3,43.89,3Z"/></clipPath><linearGradient id="g185" x1="0.5" y1="0" x2="0.5" y2="1"><stop offset="0" stop-color="#ffffff" stop-opacity="0.95"/><stop offset="1" stop-color="#c9d0de" stop-opacity="0.55"/></linearGradient><filter id="g186" x="-20%" y="-20%" width="140%" height="140%" color-interpolation-filters="sRGB"><feDropShadow dx="-2" dy="3" stdDeviation="7" flood-color="#2a3456" flood-opacity="0.11"/></filter><linearGradient id="g187" x1="0.2" y1="0" x2="0.8" y2="1"><stop offset="0" stop-color="#f4f6fa" stop-opacity="1"/><stop offset="0.55" stop-color="#e9edf4" stop-opacity="1"/><stop offset="1" stop-color="#dfe4ee" stop-opacity="1"/></linearGradient><clipPath id="g188"><path d="M172.53,12.03C172.53,5.25,178.17,4.13,182.67,8.64L265.05,91.01C269.57,95.52,268.43,102.29,261.66,102.29L206.37,102.29C187.65,102.29,172.53,87.17,172.53,68.44Z"/></clipPath><linearGradient id="g189" x1="0.5" y1="0" x2="0.5" y2="1"><stop offset="0" stop-color="#ffffff" stop-opacity="0.7"/><stop offset="1" stop-color="#d5dbe7" stop-opacity="0.25"/></linearGradient><linearGradient id="g190" x1="0.5" y1="0" x2="0.5" y2="1"><stop offset="0" stop-color="#EE5A3E" stop-opacity="1"/><stop offset="0.55" stop-color="#B04A2A" stop-opacity="1"/><stop offset="1" stop-color="#D05634" stop-opacity="1"/></linearGradient><linearGradient id="g191" x1="0.5" y1="0" x2="0.5" y2="1"><stop offset="0" stop-color="#FFA07F" stop-opacity="0.95"/><stop offset="1" stop-color="#7F3218" stop-opacity="0.6"/></linearGradient><filter id="g192" x="-30%" y="-30%" width="160%" height="160%" color-interpolation-filters="sRGB"><feDropShadow dx="0" dy="3" stdDeviation="5" flood-color="#000000" flood-opacity="0.28"/></filter><clipPath id="g193"><path d="M171.2,234.71H285.2A20,20 0 0 1 305.2,254.71V293.71000000000004A20,20 0 0 1 285.2,313.71000000000004H171.2A20,20 0 0 1 151.2,293.71000000000004V254.71A20,20 0 0 1 171.2,234.71Z"/></clipPath><linearGradient id="g194" x1="0.5" y1="0" x2="0.5" y2="1"><stop offset="0" stop-color="#ffffff" stop-opacity="0.28"/><stop offset="1" stop-color="#ffffff" stop-opacity="0"/></linearGradient><filter id="g195" x="-30%" y="-30%" width="160%" height="160%" color-interpolation-filters="sRGB"><feDropShadow dx="0" dy="2" stdDeviation="1.5" flood-color="#000000" flood-opacity="0.28"/></filter><filter id="grainW" x="0" y="0" width="100%" height="100%" color-interpolation-filters="sRGB"><feTurbulence type="fractalNoise" baseFrequency="0.85" numOctaves="3" seed="7" stitchTiles="stitch" result="fine"/><feColorMatrix in="fine" type="matrix" values="0.33 0.33 0.33 0 0 0.33 0.33 0.33 0 0 0.33 0.33 0.33 0 0 0 0 0 0 1" result="fineG"/><feTurbulence type="fractalNoise" baseFrequency="0.018 0.011" numOctaves="4" seed="3" stitchTiles="stitch" result="fib"/><feColorMatrix in="fib" type="matrix" values="0.33 0.33 0.33 0 0 0.33 0.33 0.33 0 0 0.33 0.33 0.33 0 0 0 0 0 0 1" result="fibG"/><feComposite in="fineG" in2="fibG" operator="arithmetic" k1="0" k2="0.45" k3="0.55" k4="0" result="mix"/><feComponentTransfer in="mix" result="g"><feFuncR type="linear" slope="1.25" intercept="0.02"/></feComponentTransfer><feColorMatrix in="g" type="matrix" values="0 0 0 0 1 0 0 0 0 1 0 0 0 0 1 0.2 0 0 0 -0.120"/></filter><filter id="grainB" x="0" y="0" width="100%" height="100%" color-interpolation-filters="sRGB"><feTurbulence type="fractalNoise" baseFrequency="0.85" numOctaves="3" seed="7" stitchTiles="stitch" result="fine"/><feColorMatrix in="fine" type="matrix" values="0.33 0.33 0.33 0 0 0.33 0.33 0.33 0 0 0.33 0.33 0.33 0 0 0 0 0 0 1" result="fineG"/><feTurbulence type="fractalNoise" baseFrequency="0.018 0.011" numOctaves="4" seed="3" stitchTiles="stitch" result="fib"/><feColorMatrix in="fib" type="matrix" values="0.33 0.33 0.33 0 0 0.33 0.33 0.33 0 0 0.33 0.33 0.33 0 0 0 0 0 0 1" result="fibG"/><feComposite in="fineG" in2="fibG" operator="arithmetic" k1="0" k2="0.45" k3="0.55" k4="0" result="mix"/><feComponentTransfer in="mix" result="g"><feFuncR type="linear" slope="1.25" intercept="0.02"/></feComponentTransfer><feColorMatrix in="g" type="matrix" values="0 0 0 0 0 0 0 0 0 0 0 0 0 0 0 -0.2 0 0 0 0.120"/></filter><g id="grain"><rect width="420" height="420" filter="url(#grainW)"/><rect width="420" height="420" filter="url(#grainB)"/></g></defs><g transform="translate(-2.14,-3)"><g filter="url(#g181)"><path d="M43.89,3L168.01,3C177.03,3,182.68,6.39,189.45,13.16L261.66,85.37C268.43,92.15,271.82,100.04,271.82,110.2L271.82,339.25C271.82,362.27,253.09,381,230.07,381L43.89,381C20.87,381,2.14,362.27,2.14,339.25L2.14,44.75C2.14,21.73,20.87,3,43.89,3Z" fill="url(#g182)"/><path d="M43.89,3L168.01,3C177.03,3,182.68,6.39,189.45,13.16L261.66,85.37C268.43,92.15,271.82,100.04,271.82,110.2L271.82,339.25C271.82,362.27,253.09,381,230.07,381L43.89,381C20.87,381,2.14,362.27,2.14,339.25L2.14,44.75C2.14,21.73,20.87,3,43.89,3Z" fill="url(#g183)"/></g><g clip-path="url(#g184)"><use href="#grain" xlink:href="#grain"/></g><path d="M43.89,3L168.01,3C177.03,3,182.68,6.39,189.45,13.16L261.66,85.37C268.43,92.15,271.82,100.04,271.82,110.2L271.82,339.25C271.82,362.27,253.09,381,230.07,381L43.89,381C20.87,381,2.14,362.27,2.14,339.25L2.14,44.75C2.14,21.73,20.87,3,43.89,3Z" clip-path="url(#g184)" fill="none" stroke="url(#g185)" stroke-width="3"/><g filter="url(#g186)"><path d="M172.53,12.03C172.53,5.25,178.17,4.13,182.67,8.64L265.05,91.01C269.57,95.52,268.43,102.29,261.66,102.29L206.37,102.29C187.65,102.29,172.53,87.17,172.53,68.44Z" fill="url(#g187)"/></g><g clip-path="url(#g188)"><use href="#grain" xlink:href="#grain"/></g><path d="M172.53,12.03C172.53,5.25,178.17,4.13,182.67,8.64L265.05,91.01C269.57,95.52,268.43,102.29,261.66,102.29L206.37,102.29C187.65,102.29,172.53,87.17,172.53,68.44Z" clip-path="url(#g188)" fill="none" stroke="url(#g189)" stroke-width="3"/></g><path d="M171.2,234.71H285.2A20,20 0 0 1 305.2,254.71V293.71000000000004A20,20 0 0 1 285.2,313.71000000000004H171.2A20,20 0 0 1 151.2,293.71000000000004V254.71A20,20 0 0 1 171.2,234.71Z" fill="url(#g190)" filter="url(#g192)"/><path d="M171.2,234.71H285.2A20,20 0 0 1 305.2,254.71V293.71000000000004A20,20 0 0 1 285.2,313.71000000000004H171.2A20,20 0 0 1 151.2,293.71000000000004V254.71A20,20 0 0 1 171.2,234.71Z" clip-path="url(#g193)" fill="none" stroke="url(#g191)" stroke-width="4"/><path d="M172.2,237.71H284.2A17,17 0 0 1 301.2,254.71V265.26A8,8 0 0 1 293.2,273.26H163.2A8,8 0 0 1 155.2,265.26V254.71A17,17 0 0 1 172.2,237.71Z" fill="url(#g194)"/><path d="M174.79326171875 289.94339843750004 188.87626953125 269.90824218750004V275.92777343750004L175.98369140625 256.47660156250004H185.17021484375L188.35966796875 261.48539062500004Q189.37041015625 263.08011718750004 190.02177734375 264.43900390625004Q190.67314453125 265.79789062500004 191.21220703125 267.03324218750004Q191.75126953125 268.26859375000004 192.40263671875 269.45902343750004H190.15654296875Q190.83037109375 268.26859375000004 191.3806640625 267.03324218750004Q191.93095703125 265.79789062500004 192.5935546875 264.43900390625004Q193.25615234375 263.08011718750004 194.26689453125 261.48539062500004L197.52373046875 256.47660156250004H206.46318359375L193.88505859375 275.47855468750004V269.79593750000004L207.60869140625 289.94339843750004H198.19755859375L194.01982421875 283.54203125000004Q193.09892578125 282.10453125000004 192.55986328125 281.12748046875004Q192.02080078125 280.15042968750004 191.6052734375 279.30814453125004Q191.18974609375 278.46585937500004 190.60576171875 277.47757812500004H191.75126953125Q191.21220703125 278.44339843750004 190.78544921875 279.29691406250004Q190.35869140625 280.15042968750004 189.8083984375 281.13871093750004Q189.25810546875 282.12699218750004 188.31474609375 283.54203125000004L183.97978515625 289.94339843750004ZM211.81474609375 289.94339843750004V256.47660156250004H224.16826171875L228.43583984375 269.50394531250004Q228.79521484375 270.69437500000004 229.2556640625 272.65970703125004Q229.71611328125 274.62503906250004 230.18779296875 276.87113281250004Q230.65947265625 279.11722656250004 231.0525390625 281.20609375000004Q231.44560546875 283.29496093750004 231.69267578125 284.79984375000004H230.18779296875Q230.43486328125 283.31742187500004 230.8279296875 281.22855468750004Q231.22099609375 279.13968750000004 231.6814453125 276.88236328125004Q232.14189453125 274.62503906250004 232.60234375 272.67093750000004Q233.06279296875 270.71683593750004 233.42216796875 269.50394531250004L237.62236328125 256.47660156250004H249.99833984375V289.94339843750004H242.02470703125V275.52347656250004Q242.02470703125 274.40042968750004 242.06962890625 272.63724609375004Q242.11455078125 270.87406250000004 242.170703125 268.80765625000004Q242.22685546875 266.74125000000004 242.2830078125 264.64115234375004Q242.33916015625 262.54105468750004 242.33916015625 260.72171875000004H242.81083984375Q242.40654296875 262.72074218750004 241.8787109375 264.85453125000004Q241.35087890625 266.98832031250004 240.823046875 269.00980468750004Q240.29521484375 271.03128906250004 239.8123046875 272.71585937500004Q239.32939453125 274.40042968750004 238.99248046875 275.52347656250004L234.23076171875 289.94339843750004H227.60478515625L222.77568359375 275.52347656250004Q222.43876953125 274.42289062500004 221.94462890625 272.73832031250004Q221.45048828125 271.05375000000004 220.91142578125 269.03226562500004Q220.37236328125 267.01078125000004 219.83330078125 264.87699218750004Q219.29423828125 262.74320312500004 218.84501953125 260.72171875000004H219.42900390625Q219.45146484375 262.49613281250004 219.49638671875 264.58500000000004Q219.54130859375 266.67386718750004 219.5974609375 268.76273437500004Q219.65361328125 270.85160156250004 219.709765625 272.61478515625004Q219.76591796875 274.37796875000004 219.76591796875 275.52347656250004V289.94339843750004ZM255.70927734375 289.94339843750004V256.47660156250004H269.41044921875Q273.18388671875 256.47660156250004 275.92412109375 257.93656250000004Q278.66435546875 259.39652343750004 280.135546875 262.00199218750004Q281.60673828125 264.60746093750004 281.60673828125 268.04398437500004Q281.60673828125 271.50296875000004 280.10185546875 274.06351562500004Q278.59697265625 276.62406250000004 275.81181640625 278.06156250000004Q273.02666015625 279.49906250000004 269.18583984375 279.49906250000004H260.69560546875V273.23246093750004H267.74833984375Q269.61259765625 273.23246093750004 270.87041015625 272.58109375000004Q272.12822265625 271.92972656250004 272.75712890625 270.76175781250004Q273.38603515625 269.59378906250004 273.38603515625 268.04398437500004Q273.38603515625 266.47171875000004 272.75712890625 265.31498046875004Q272.12822265625 264.15824218750004 270.8591796875 263.52933593750004Q269.59013671875 262.90042968750004 267.72587890625 262.90042968750004H263.63798828125V289.94339843750004Z" fill="#ffffff" filter="url(#g195)"/></svg>